<svg width="311" height="59" fill="none" xmlns="http://www.w3.org/2000/svg"><path d="M77 38.804V17.196h5.867c1.27 0 2.346.195 3.226.488.88.294 1.663.685 2.25 1.174.586.489.977 1.075 1.27 1.76.294.684.391 1.369.391 2.053v.782c0 .587-.097 1.076-.195 1.467a3.615 3.615 0 01-.489 1.076c-.489.586-1.076 1.075-2.053 1.466.977.391 1.662.88 2.053 1.467.489.684.684 1.564.684 2.738v1.173c0 1.858-.586 3.324-1.76 4.4-1.173.978-3.128 1.564-5.67 1.564H77zm4.009-18.675v5.964h1.76c1.369 0 2.249-.293 2.64-.782.489-.489.684-1.271.684-2.249 0-.978-.293-1.662-.782-2.15-.391-.588-1.369-.783-2.64-.783H81.01zm0 8.604v6.943h1.76c.782 0 1.467-.098 1.858-.294.489-.195.782-.39 1.075-.782.196-.293.391-.684.391-1.173.098-.49.098-.978.098-1.467 0-.587 0-.978-.098-1.467-.097-.39-.195-.782-.489-1.075-.293-.294-.586-.49-1.075-.587-.489 0-1.076-.098-1.76-.098h-1.76zM91.373 38.804l6.258-21.608h3.324l6.258 21.608h-4.009l-1.173-4.595h-5.476l-1.173 4.595h-4.009zm9.876-7.626l-1.956-7.822h-.098l-1.955 7.822h4.009zM108.974 38.804V17.196h3.813l6.062 13.004h.098V17.196h4.009v21.608h-3.716L113.08 25.8h-.097v13.004h-4.009zM126.574 38.804V17.196h4.009v9.875h.097l5.867-9.875h4.009L135.08 25.8l6.454 13.004h-4.205l-4.595-9.582-2.151 3.13v6.452h-4.009zM143.391 38.804V17.196h4.009v21.608h-4.009zM151.213 38.804V17.196h6.454c4.693 0 7.04 2.15 7.04 6.355 0 1.271-.294 2.347-.783 3.227-.488.88-1.368 1.564-2.64 2.15l4.303 9.876h-4.205l-3.715-9.19h-2.445v9.19h-4.009zm4.009-18.675v6.649h2.249c.685 0 1.271-.098 1.662-.196.391-.195.783-.39.978-.684.196-.294.391-.587.391-1.076.098-.39.098-.88.098-1.466 0-.587 0-.978-.098-1.467 0-.293-.098-.685-.391-.978-.489-.587-1.467-.88-2.835-.88h-2.054v.098zM167.738 22.28c0-.88.195-1.662.587-2.347.391-.684.88-1.27 1.564-1.662.587-.391 1.369-.782 2.151-.978a9.649 9.649 0 012.347-.293c.782 0 1.564.098 2.444.293.88.196 1.565.587 2.151.978.587.489 1.174.978 1.565 1.662.391.685.586 1.467.586 2.347v11.44c0 .88-.195 1.662-.586 2.347a4.008 4.008 0 01-1.565 1.564 6.108 6.108 0 01-2.151.978 9.848 9.848 0 01-2.444.293c-.782 0-1.662-.098-2.445-.293-.782-.196-1.466-.587-2.151-.978-.684-.391-1.173-.978-1.564-1.564-.391-.685-.587-1.467-.587-2.347V22.28h.098zm4.009 11.44c0 .782.293 1.271.782 1.662.489.391 1.173.49 1.858.49.684 0 1.369-.196 1.858-.49.488-.39.782-.88.782-1.662V22.28c0-.782-.294-1.271-.782-1.662-.489-.391-1.174-.49-1.858-.49-.685 0-1.369.196-1.858.49-.489.39-.782.88-.782 1.662v11.44zM197.56 23.356h-4.009v-.685c0-.684-.195-1.271-.684-1.858-.391-.489-1.174-.782-2.151-.782-.587 0-.978.098-1.369.196-.294.195-.587.39-.783.586-.195.294-.391.587-.391.88-.097.294-.097.685-.097 1.076s0 .782.097 1.075c0 .294.098.49.294.783.195.195.391.39.684.586.293.196.685.294 1.271.49l3.031.977c.88.293 1.565.587 2.151.88.587.391.978.782 1.272 1.271.293.489.488 1.076.586 1.662.098.587.196 1.271.196 2.151 0 .88-.098 1.76-.391 2.543-.196.782-.587 1.466-1.174 1.955-.586.587-1.271.978-2.151 1.37-.88.292-1.955.488-3.226.488-.978 0-1.858-.098-2.738-.391-.88-.293-1.565-.587-2.151-1.076-.587-.489-1.076-.977-1.467-1.662-.391-.587-.489-1.271-.489-2.053v-1.174h4.009v.978c0 .587.196 1.076.684 1.565.392.489 1.174.684 2.152.684a6.13 6.13 0 001.564-.195c.391-.196.684-.392.88-.685.196-.293.293-.587.391-.978 0-.39.098-.88.098-1.27 0-.587 0-1.076-.098-1.37-.098-.39-.195-.684-.293-.88-.196-.195-.391-.39-.685-.586-.293-.098-.684-.294-1.173-.49l-2.836-.88c-1.76-.586-2.835-1.27-3.422-2.15-.586-.88-.88-2.054-.88-3.423 0-.782.098-1.564.391-2.346.294-.685.685-1.37 1.271-1.858.587-.489 1.272-.978 2.054-1.271a9.376 9.376 0 013.031-.489c.978 0 1.858.098 2.738.391.782.293 1.564.685 2.151 1.076 1.173.977 1.76 2.053 1.76 3.324v1.565h-.098z" fill="#FFDFB0"/><path d="M209.978 38.707l6.258-21.61h3.324l6.258 21.61h-4.009l-1.173-4.596h-5.476l-1.173 4.596h-4.009zm9.876-7.53l-1.956-7.821h-.098l-1.955 7.822h4.009zM247.035 17.196l-4.107 21.608h-3.715l-3.031-13.982h-.098l-3.031 13.982h-3.716l-4.107-21.608h4.205l1.955 13.688h.098l3.129-13.688h3.031l3.227 14.08h.098l1.955-14.08h4.107zM246.547 38.707l6.258-21.61h3.324l6.258 21.61h-4.009l-1.173-4.596h-5.476l-1.173 4.596h-4.009zm9.875-7.53l-1.955-7.821h-.098l-1.955 7.822h4.008zM264.244 38.707V17.196h6.453c4.694 0 7.04 2.15 7.04 6.355 0 1.271-.293 2.347-.782 3.227-.489.88-1.369 1.564-2.64 2.15l4.302 9.876h-4.204l-3.716-9.288h-2.346v9.19h-4.107zm4.009-18.676v6.747h2.249a7.02 7.02 0 001.662-.196c.391-.195.782-.39.978-.684.195-.294.391-.587.391-1.076.098-.39.098-.88.098-1.466 0-.587 0-.978-.098-1.467-.098-.391-.196-.782-.489-1.076-.489-.586-1.467-.88-2.835-.88h-1.956v.098zM280.964 38.707V17.196h5.965c2.249 0 4.009.488 5.28 1.466 1.173.978 1.76 2.347 1.76 4.107V32.84c0 2.053-.587 3.52-1.858 4.498-1.271.978-3.129 1.466-5.476 1.466h-5.671v-.097zm4.009-18.676v15.742h1.858c1.076 0 1.956-.195 2.347-.684.489-.391.684-1.076.684-2.053V22.769c0-.88-.195-1.467-.684-1.956-.489-.489-1.271-.684-2.445-.684h-1.76v-.098zM310.591 23.356h-4.009v-.685c0-.684-.196-1.271-.685-1.858-.391-.489-1.173-.782-2.151-.782-.586 0-.977.098-1.369.196-.293.195-.586.39-.782.586-.195.294-.391.587-.391.88-.098.294-.098.685-.098 1.076s0 .782.098 1.075c0 .294.098.49.293.783.196.195.392.39.685.586.293.196.684.294 1.271.49l3.031.977c.88.293 1.565.587 2.151.88.587.391.978.782 1.271 1.271.294.489.489 1.076.587 1.662.098.587.196 1.271.196 2.151 0 .88-.098 1.76-.392 2.543-.195.782-.586 1.466-1.173 1.955-.587.587-1.271.978-2.151 1.37-.88.292-1.956.488-3.227.488-.977 0-1.857-.098-2.737-.391-.88-.293-1.565-.587-2.152-1.076-.586-.489-1.075-.977-1.466-1.662-.391-.587-.489-1.271-.489-2.053v-1.174h4.009v.978c0 .587.195 1.076.684 1.565.391.489 1.174.684 2.151.684.685 0 1.174-.098 1.565-.195.391-.196.684-.392.88-.685.195-.293.293-.587.391-.978 0-.39.098-.88.098-1.27 0-.587 0-1.076-.098-1.37-.098-.39-.196-.684-.293-.88-.196-.195-.392-.39-.685-.586-.293-.098-.684-.294-1.173-.49l-2.836-.88c-1.76-.586-2.835-1.27-3.422-2.15-.587-.88-.88-2.054-.88-3.423 0-.782.098-1.564.391-2.346.293-.685.685-1.37 1.271-1.858.587-.489 1.271-.978 2.054-1.271A9.371 9.371 0 01304.04 17c.977 0 1.857.098 2.737.391.783.293 1.565.685 2.152 1.076 1.173.977 1.76 2.053 1.76 3.324v1.565h-.098z" fill="#C7A26C"/><g clip-path="url(#clip0)"><path d="M6.3 29.2c0-12.6 10.2-22.9 22.9-22.9 9.7 0 17.9 6 21.3 14.5l4.9-4.6C50.6 6.7 40.6 0 29.2 0 13 0 0 13 0 29.2c0 2 .3 3.8.6 5.8l5.8-5.3c0-.2-.1-.5-.1-.5z" fill="#FFDFB0"/><path d="M61.5 16.6l-4.3.3-21.1 18.8-26.7-6.8-8.3 8.2c3.5 12.3 14.7 21.3 28.1 21.3 16.1 0 29.3-13 29.3-29.3 0-.9 0-1.7-.1-2.6l-6.5 6c-1.6 11.1-11.2 19.6-22.6 19.6-9.4 0-17.3-5.5-20.9-13.5l2.4-2.6 27.7 7L52 30.4l5.9-5.5 3.5-3.5.1-4.8z" fill="#C7A26C"/><path d="M20.5 30l-6.2-1.6 9.2-9.2 3.7-.3L27 23l-6.5 7zM33.8 33l-6.3-1.5 13-13.4 3.7-.1-.1 3.9L33.8 33z" fill="#FFDFB0"/></g><defs><clipPath id="clip0"><path fill="#fff" d="M0 0h61.5v58.4H0z"/></clipPath></defs></svg>