<?xml version="1.0" standalone="no"?>
<!DOCTYPE svg PUBLIC "-//W3C//DTD SVG 20010904//EN"
 "http://www.w3.org/TR/2001/REC-SVG-20010904/DTD/svg10.dtd">
<svg version="1.0" xmlns="http://www.w3.org/2000/svg"
 width="992.000000pt" height="992.000000pt" viewBox="0 0 992.000000 992.000000"
 preserveAspectRatio="xMidYMid meet">
<metadata>
Created by potrace 1.14, written by Peter Selinger 2001-2017
</metadata>
<g transform="translate(0.000000,992.000000) scale(0.100000,-0.100000)"
fill="#000000" stroke="none">
<path d="M4418 9675 c-2 -2 -51 -7 -108 -10 -58 -3 -116 -7 -130 -9 -30 -5
-109 -16 -165 -22 -22 -2 -51 -6 -65 -9 -14 -3 -45 -8 -70 -11 -25 -3 -53 -8
-62 -10 -10 -3 -30 -7 -45 -10 -23 -4 -99 -19 -148 -30 -5 -1 -48 -12 -95 -24
-47 -12 -92 -24 -100 -25 -8 -2 -15 -4 -15 -5 0 -1 -11 -4 -25 -6 -48 -9 -307
-97 -430 -146 -69 -28 -131 -51 -137 -51 -7 0 -13 -3 -13 -7 0 -3 -17 -12 -37
-19 -102 -36 -476 -236 -605 -323 -31 -21 -60 -38 -63 -38 -3 0 -11 -5 -18
-10 -7 -6 -64 -47 -127 -92 -63 -45 -121 -88 -128 -95 -7 -7 -16 -13 -20 -13
-4 0 -26 -17 -49 -38 -23 -20 -51 -44 -63 -52 -12 -8 -34 -26 -50 -40 -15 -14
-56 -50 -91 -80 -139 -122 -391 -384 -490 -510 -24 -30 -47 -57 -50 -60 -9 -6
-152 -201 -199 -270 -19 -28 -41 -58 -47 -65 -7 -7 -13 -17 -13 -21 0 -4 -11
-22 -25 -40 -14 -18 -25 -35 -25 -39 0 -8 -53 -89 -65 -97 -5 -4 -6 -8 -2 -8
5 0 0 -12 -11 -27 -38 -56 -135 -240 -203 -388 -26 -56 -24 -52 -34 -82 -4
-13 -11 -23 -14 -23 -4 0 -8 -6 -8 -12 0 -11 -29 -87 -78 -203 -14 -33 -95
-275 -99 -297 -2 -7 -6 -20 -9 -28 -4 -8 -9 -26 -11 -40 -3 -14 -5 -25 -6 -25
-1 0 -3 -7 -5 -15 -2 -8 -6 -24 -9 -35 -11 -43 -38 -151 -41 -168 -2 -10 -6
-26 -9 -35 -4 -15 -14 -69 -20 -112 -2 -8 -6 -28 -10 -45 -3 -16 -8 -43 -11
-60 -2 -16 -6 -41 -9 -55 -7 -39 -18 -121 -22 -165 -2 -22 -6 -58 -9 -80 -27
-230 -27 -704 0 -910 3 -22 8 -58 10 -80 3 -22 7 -56 10 -75 3 -19 7 -48 9
-65 14 -111 17 -134 22 -156 3 -13 8 -46 11 -74 3 -27 6 -51 7 -52 2 -3 58 47
166 147 52 48 117 107 144 131 26 24 65 59 85 77 20 19 56 52 81 75 207 190
252 232 269 246 84 73 189 176 186 181 -26 42 -15 364 20 585 24 157 42 260
45 260 2 0 9 30 14 60 2 11 6 27 9 35 5 13 30 117 32 130 0 3 5 19 12 35 6 17
25 74 42 127 17 54 36 110 43 125 6 16 12 33 14 38 7 29 74 177 137 304 91
182 94 186 132 246 18 28 34 55 36 60 5 12 100 155 114 171 6 6 17 22 25 34
19 28 121 161 135 176 5 6 25 29 43 52 87 106 224 244 407 411 22 20 70 58
105 86 36 27 70 53 75 57 6 5 28 22 50 38 22 16 45 34 52 40 7 5 16 10 22 10
5 0 11 3 13 8 4 9 177 120 238 153 25 13 47 27 50 30 3 3 29 17 58 30 28 13
52 27 52 31 0 5 9 8 20 8 11 0 20 5 20 10 0 6 3 9 8 8 4 -1 41 15 82 34 84 40
150 69 165 72 6 1 28 10 50 20 45 20 327 114 359 120 12 3 50 12 86 21 63 15
77 18 138 30 15 3 38 8 52 11 31 6 80 15 165 29 35 6 120 15 185 20 25 2 45 4
45 5 0 8 427 13 520 6 46 -3 166 -15 225 -21 14 -2 41 -6 60 -9 19 -3 52 -8
74 -11 21 -2 46 -7 55 -9 9 -3 32 -7 51 -10 63 -10 95 -17 125 -26 17 -5 44
-11 60 -14 17 -2 30 -5 30 -6 0 -1 7 -3 15 -5 51 -10 272 -77 315 -95 33 -13
90 -35 95 -35 3 -1 25 -11 50 -22 25 -12 52 -23 59 -25 25 -6 314 -149 343
-169 15 -11 28 -17 28 -12 0 4 7 -1 15 -11 8 -11 15 -16 15 -12 0 4 15 -3 33
-16 17 -13 34 -23 37 -23 21 0 337 -229 455 -330 123 -104 306 -284 371 -365
16 -19 36 -42 45 -50 9 -8 34 -37 55 -65 22 -27 47 -59 56 -70 55 -65 234
-331 274 -405 11 -19 22 -37 25 -40 9 -8 186 -372 200 -412 7 -21 16 -38 20
-38 7 0 42 32 199 180 20 19 88 82 150 140 62 58 135 126 163 153 27 26 55 47
60 47 6 0 8 3 5 6 -3 3 17 26 45 52 141 129 157 147 151 164 -11 36 -150 283
-181 323 -5 6 -14 21 -20 35 -14 27 -35 62 -43 70 -3 3 -23 32 -44 64 -21 33
-43 64 -47 70 -5 6 -46 61 -92 122 -178 240 -437 522 -647 704 -41 36 -77 67
-80 71 -3 3 -43 35 -90 72 -47 37 -92 73 -100 80 -8 8 -63 48 -121 90 -286
204 -638 400 -939 521 -36 15 -73 31 -82 36 -10 6 -22 10 -27 10 -5 0 -25 7
-45 15 -20 8 -39 16 -43 17 -5 1 -56 18 -115 39 -60 21 -108 36 -108 32 0 -3
-6 -1 -12 4 -7 6 -38 16 -68 24 -69 17 -62 15 -80 21 -13 5 -83 23 -130 33 -8
2 -46 10 -85 19 -73 16 -109 24 -160 32 -16 3 -41 8 -55 10 -14 3 -38 7 -55 9
-16 2 -43 6 -60 9 -27 4 -113 15 -175 21 -14 2 -25 4 -25 5 0 8 -699 23 -707
15z"/>
<path d="M9780 7021 c0 -3 -26 -6 -58 -7 -31 0 -97 -4 -147 -8 -49 -4 -121 -9
-160 -11 -38 -3 -101 -8 -140 -11 -38 -3 -81 -6 -95 -5 -15 0 -39 -12 -61 -32
-19 -17 -66 -59 -103 -92 -38 -33 -83 -73 -101 -90 -17 -16 -58 -53 -91 -82
-32 -28 -71 -62 -85 -75 -37 -33 -166 -149 -218 -194 -24 -22 -54 -48 -66 -59
-13 -11 -53 -47 -90 -80 -37 -33 -93 -82 -123 -110 -31 -27 -73 -66 -95 -85
-22 -19 -50 -45 -64 -57 -13 -13 -25 -23 -27 -23 -2 0 -21 -17 -43 -37 -33
-32 -136 -124 -201 -182 -48 -41 -158 -139 -192 -171 -21 -19 -60 -54 -87 -77
-26 -22 -61 -53 -78 -68 -58 -53 -228 -205 -266 -237 -14 -13 -53 -48 -86 -78
-33 -30 -89 -80 -123 -110 -34 -30 -75 -66 -91 -80 -15 -14 -56 -50 -90 -80
-34 -30 -76 -68 -94 -85 -18 -16 -57 -51 -87 -77 -30 -26 -68 -60 -84 -75 -17
-15 -56 -50 -88 -78 -32 -27 -70 -61 -85 -75 -15 -14 -63 -56 -106 -95 -43
-38 -99 -88 -123 -110 -76 -69 -87 -79 -157 -140 -38 -33 -93 -82 -123 -110
-30 -27 -60 -53 -68 -58 -7 -4 -99 14 -211 43 -109 28 -205 53 -213 55 -8 2
-35 9 -60 15 -48 12 -97 24 -157 39 -21 5 -76 19 -123 31 -47 12 -92 24 -100
26 -8 2 -60 15 -115 30 -55 14 -107 27 -115 29 -8 2 -60 15 -115 30 -55 14
-111 28 -125 31 -14 3 -47 12 -75 20 -27 8 -52 15 -55 15 -10 0 -56 12 -165
41 -60 16 -121 31 -135 33 -14 2 -25 5 -25 6 0 1 -9 3 -20 5 -29 5 -178 44
-195 51 -18 7 -26 9 -65 17 -16 4 -118 29 -225 57 -107 28 -211 54 -230 59
-19 4 -45 11 -58 14 -22 6 -40 11 -85 22 -12 3 -26 6 -32 8 -5 1 -26 6 -45 10
-19 5 -39 11 -45 14 -5 3 -17 7 -26 7 -16 1 -88 19 -149 36 -19 6 -42 12 -50
13 -8 2 -22 6 -30 9 -8 4 -26 8 -40 9 -14 2 -30 7 -36 11 -7 4 -29 9 -50 12
-22 3 -46 9 -54 12 -8 3 -22 7 -30 8 -21 4 -38 9 -175 45 -66 18 -129 33 -140
33 -11 1 -23 6 -26 10 -3 4 -22 9 -42 10 -21 1 -37 5 -37 10 0 4 -13 7 -28 7
-16 0 -32 3 -36 7 -3 4 -15 8 -26 10 -10 1 -107 25 -215 53 -108 28 -204 51
-213 53 -9 1 -23 6 -29 10 -7 5 -13 6 -13 2 0 -3 -9 -1 -20 5 -18 10 -30 1
-102 -70 -45 -44 -82 -80 -82 -80 -1 0 -170 -167 -376 -371 -206 -204 -469
-463 -583 -577 -208 -205 -209 -206 -202 -241 4 -20 11 -42 17 -48 6 -7 8 -13
5 -13 -6 0 45 -157 78 -240 116 -299 207 -496 317 -688 27 -46 48 -87 48 -92
0 -6 3 -10 8 -10 4 0 12 -9 17 -19 36 -69 88 -151 96 -151 6 0 7 -5 4 -10 -3
-5 -2 -10 2 -10 5 0 17 -15 28 -32 36 -63 153 -222 189 -258 11 -11 16 -20 10
-20 -5 0 -4 -4 2 -8 5 -4 32 -34 60 -67 51 -63 82 -98 149 -174 60 -68 315
-320 369 -366 26 -21 58 -48 70 -60 51 -45 83 -72 116 -95 19 -14 42 -32 51
-40 32 -30 59 -50 69 -50 6 0 10 -4 10 -10 0 -5 5 -10 10 -10 6 0 20 -9 32
-20 30 -28 275 -190 288 -190 5 0 10 -4 10 -10 0 -5 7 -10 15 -10 8 0 15 -5
15 -10 0 -6 3 -9 8 -8 4 1 25 -9 47 -23 123 -75 450 -235 610 -299 44 -18 91
-36 105 -40 14 -5 83 -29 155 -54 71 -24 133 -42 137 -40 4 3 8 0 8 -5 0 -6 3
-10 8 -9 4 1 45 -8 91 -21 106 -29 122 -33 146 -34 11 -1 22 -5 25 -9 3 -4 21
-8 40 -9 19 -2 40 -6 45 -10 6 -3 28 -9 50 -13 67 -10 88 -13 150 -25 103 -18
182 -29 260 -36 33 -3 70 -7 82 -9 74 -15 607 -23 738 -11 22 2 72 6 110 9 77
7 142 14 195 22 19 3 51 7 70 9 35 4 97 14 135 21 11 2 34 7 50 9 17 3 37 8
45 10 8 2 31 7 50 9 19 3 73 15 120 26 47 12 90 23 95 24 6 1 16 5 23 9 6 5
12 6 12 3 0 -3 21 2 48 10 26 8 56 17 66 19 28 6 89 27 101 33 5 3 16 7 25 7
28 3 290 101 425 160 62 27 382 186 435 216 94 54 281 172 296 186 8 8 14 12
14 8 0 -7 73 47 78 58 2 4 10 7 17 7 7 0 15 3 17 8 2 4 26 23 53 42 28 19 64
47 80 62 17 15 33 28 36 28 3 0 15 8 26 18 11 9 39 33 62 52 23 19 52 43 64
53 185 155 452 431 602 621 17 21 42 53 57 70 15 17 28 34 28 37 0 5 8 16 48
65 12 14 160 235 205 304 45 71 121 206 166 295 20 39 39 72 43 73 5 2 8 8 8
14 0 6 20 53 45 105 25 52 45 96 45 98 0 3 11 28 24 57 13 29 47 118 76 198
29 80 55 152 58 160 3 8 7 20 7 25 1 6 5 17 8 25 35 91 91 316 142 570 1 8 6
37 9 64 4 27 9 52 10 55 2 3 7 37 11 76 4 38 8 72 10 75 2 3 6 41 10 85 3 44
8 93 11 108 4 24 15 313 15 402 0 33 -11 337 -13 372 -2 25 -5 23 -69 -37 -28
-27 -82 -76 -228 -210 -50 -47 -114 -105 -140 -130 -27 -25 -93 -85 -147 -135
-54 -49 -115 -107 -136 -127 -21 -21 -40 -38 -42 -38 -2 0 -48 -42 -102 -92
-191 -180 -179 -164 -193 -248 -11 -62 -25 -131 -66 -315 -1 -5 -5 -17 -8 -25
-4 -8 -8 -26 -11 -40 -4 -27 -80 -262 -95 -295 -5 -11 -15 -36 -22 -55 -7 -19
-22 -57 -35 -85 -12 -27 -34 -76 -48 -108 -14 -31 -27 -60 -28 -65 -1 -4 -18
-36 -38 -72 -19 -36 -44 -83 -55 -105 -11 -22 -23 -42 -26 -45 -3 -3 -14 -21
-24 -40 -10 -19 -44 -74 -76 -123 -33 -49 -59 -92 -59 -97 0 -5 -4 -10 -8 -12
-5 -1 -26 -28 -48 -58 -34 -49 -141 -186 -169 -216 -5 -6 -35 -40 -65 -74 -80
-93 -343 -350 -356 -350 -3 0 -15 -9 -27 -21 -12 -12 -38 -33 -57 -48 -19 -14
-41 -32 -49 -39 -8 -7 -26 -21 -40 -30 -14 -9 -30 -22 -34 -29 -4 -7 -15 -13
-22 -13 -8 0 -15 -4 -15 -8 0 -4 -15 -16 -32 -27 -18 -10 -35 -22 -38 -25 -5
-7 -144 -95 -207 -131 -18 -11 -50 -29 -70 -41 -21 -11 -60 -33 -88 -47 -27
-14 -53 -30 -57 -36 -4 -5 -8 -7 -8 -3 0 4 -30 -8 -67 -26 -38 -18 -97 -46
-133 -61 -36 -15 -76 -32 -90 -38 -14 -6 -29 -12 -35 -13 -5 -1 -48 -17 -95
-34 -47 -17 -89 -32 -95 -34 -5 -1 -37 -10 -70 -20 -33 -10 -67 -20 -75 -22
-8 -2 -60 -14 -115 -28 -55 -14 -113 -27 -130 -30 -16 -3 -41 -8 -55 -11 -14
-3 -41 -8 -60 -11 -19 -3 -46 -7 -60 -10 -180 -32 -588 -48 -800 -30 -41 3
-104 8 -140 11 -36 2 -76 7 -90 10 -14 3 -43 8 -65 11 -59 8 -87 12 -120 19
-16 3 -55 10 -85 16 -30 6 -80 18 -110 26 -30 8 -68 17 -84 20 -16 2 -97 27
-180 55 -83 27 -155 51 -161 52 -5 2 -21 8 -35 13 -14 6 -43 18 -65 27 -22 9
-53 22 -69 29 -103 42 -379 187 -484 253 -28 19 -54 34 -57 34 -3 -1 -13 7
-22 16 -9 8 -35 27 -57 41 -41 26 -182 131 -208 155 -7 7 -34 29 -58 48 -109
85 -336 311 -446 444 -42 50 -84 101 -95 112 -10 12 -19 26 -19 32 0 6 -4 12
-9 14 -12 4 -131 174 -195 278 -91 147 -197 346 -188 354 3 3 1 6 -5 6 -5 0
-16 18 -23 40 l-13 41 45 47 c57 60 93 98 193 207 44 48 95 102 112 122 l33
34 52 -15 c29 -8 64 -17 78 -20 14 -3 50 -12 82 -20 31 -8 67 -17 80 -20 12
-2 95 -23 183 -46 88 -23 167 -43 175 -45 8 -2 53 -13 100 -25 47 -12 92 -23
100 -25 8 -2 35 -8 60 -15 25 -7 52 -13 61 -15 23 -5 99 -25 137 -36 18 -6 45
-13 60 -16 36 -7 56 -11 62 -13 3 -1 8 -2 12 -1 4 0 23 -6 42 -14 20 -9 36
-12 36 -9 0 4 6 1 13 -5 8 -6 16 -9 19 -6 2 3 20 0 39 -6 19 -5 45 -12 57 -15
13 -3 49 -12 80 -20 32 -8 64 -17 72 -19 8 -1 106 -26 218 -55 112 -28 212
-52 223 -53 10 -1 19 -6 19 -11 0 -5 3 -7 6 -4 3 4 20 2 37 -3 18 -6 41 -12
52 -14 11 -3 65 -16 120 -30 55 -14 111 -28 125 -31 14 -2 32 -7 40 -11 8 -3
31 -9 50 -14 19 -4 53 -13 75 -19 22 -6 55 -13 74 -16 19 -2 41 -10 48 -16 7
-6 13 -8 13 -5 0 6 22 1 185 -42 66 -18 129 -34 140 -36 11 -2 20 -4 20 -5 0
-2 14 -5 53 -14 13 -3 32 -8 42 -11 10 -3 27 -7 37 -9 23 -5 650 -163 723
-182 30 -9 66 -17 80 -20 14 -3 57 -14 95 -24 39 -10 81 -21 95 -24 14 -3 78
-19 143 -36 96 -25 120 -28 131 -18 7 7 64 60 126 118 62 58 134 125 160 150
63 59 267 250 305 284 26 24 188 175 290 271 18 17 83 77 145 135 62 58 134
125 160 150 44 42 208 194 290 270 19 18 88 83 154 144 65 61 133 125 151 141
38 36 243 227 289 270 18 17 83 77 145 135 62 58 136 128 166 155 29 28 99 93
155 145 57 52 120 111 140 130 20 19 86 80 145 135 217 201 263 245 544 526
l286 286 3 149 c8 367 9 602 3 610 -7 10 -51 14 -51 5z"/>
<path d="M6957 6804 c-4 -5 -60 -9 -125 -11 -64 -1 -170 -4 -234 -6 l-118 -3
-140 -144 c-77 -80 -140 -148 -140 -152 0 -5 -7 -8 -15 -8 -8 0 -15 -4 -15 -8
0 -5 -53 -63 -117 -129 -122 -125 -498 -512 -670 -690 -175 -180 -720 -742
-880 -906 -53 -54 -92 -102 -87 -106 7 -6 230 -62 307 -76 9 -2 21 -7 27 -10
5 -3 24 -8 42 -10 34 -4 73 -12 73 -15 0 -1 7 -3 15 -5 8 -1 76 -17 150 -35
123 -30 167 -40 240 -56 14 -3 43 -10 65 -16 72 -19 75 -18 105 15 16 18 46
51 67 74 21 22 81 87 133 143 127 137 139 150 255 275 55 59 116 125 135 145
19 21 80 86 135 146 55 59 114 122 130 140 17 17 66 70 110 118 44 48 100 109
125 135 25 26 88 94 140 151 52 57 113 122 135 145 22 23 78 84 125 135 47 51
94 102 105 112 14 13 20 34 21 71 1 29 5 170 9 314 l6 263 -50 -3 c-28 -2 -52
0 -53 5 -2 5 -7 6 -11 2z"/>
<path d="M4318 6654 c-2 -1 -43 -5 -93 -9 -49 -3 -110 -8 -135 -10 -25 -2 -83
-7 -130 -11 -47 -4 -98 -8 -115 -10 -16 -1 -42 -3 -56 -3 -21 -1 -175 -150
-763 -737 -405 -405 -736 -738 -736 -741 0 -2 5 -1 10 2 6 3 10 2 10 -2 0 -5
8 -9 18 -10 19 -1 31 -4 117 -27 33 -9 71 -19 83 -22 13 -2 49 -12 80 -20 32
-9 66 -17 77 -19 11 -2 21 -4 23 -5 1 -2 7 -4 12 -5 6 -1 13 -4 18 -5 4 -1 12
-3 17 -5 6 -1 12 -3 15 -4 3 -2 14 -4 25 -6 16 -2 218 -56 310 -81 11 -3 30
-6 43 -7 12 -1 22 -4 22 -7 0 -4 6 -7 13 -7 6 0 31 -5 55 -11 43 -10 44 -10
85 35 23 24 64 68 90 96 27 29 88 94 135 146 48 52 107 115 130 140 24 25 79
84 122 131 43 47 98 106 122 131 70 75 260 280 303 327 22 24 53 57 68 73 28
28 29 34 32 137 2 59 6 150 9 202 19 340 19 347 2 347 -9 0 -17 -1 -18 -3z"/>
</g>
</svg>
